<?xml version="1.0" standalone="no"?>
<!DOCTYPE svg PUBLIC "-//W3C//DTD SVG 20010904//EN"
 "http://www.w3.org/TR/2001/REC-SVG-20010904/DTD/svg10.dtd">
<svg version="1.0" xmlns="http://www.w3.org/2000/svg"
 width="512.000000pt" height="512.000000pt" viewBox="0 0 512.000000 512.000000"
 preserveAspectRatio="xMidYMid meet">

<g transform="translate(0.000000,512.000000) scale(0.100000,-0.100000)"
fill="#000000" stroke="none">
<path d="M715 4196 c-213 -52 -394 -240 -435 -451 -8 -44 -10 -378 -8 -1220
l3 -1160 23 -62 c64 -171 202 -307 370 -365 l67 -23 1825 0 1825 0 67 23 c171
59 311 199 370 370 l23 67 0 1185 0 1185 -23 67 c-58 168 -194 306 -365 370
l-62 23 -1815 2 c-1405 1 -1826 -1 -1865 -11z m3636 -318 c72 -24 149 -99 164
-159 6 -24 -31 -48 -899 -562 -497 -294 -925 -543 -951 -551 -56 -20 -157 -21
-216 -3 -25 8 -451 254 -947 548 -894 529 -903 534 -897 562 11 60 85 136 159
164 44 17 3538 18 3587 1z m-2911 -1054 c443 -263 832 -489 864 -502 67 -27
188 -51 256 -51 63 0 185 23 250 48 59 22 108 51 1072 629 351 210 640 382
643 382 3 0 4 -431 3 -957 -3 -903 -4 -960 -21 -994 -23 -47 -79 -103 -126
-126 -34 -17 -116 -18 -1821 -18 -1705 0 -1787 1 -1821 18 -47 23 -103 79
-126 126 -17 34 -18 91 -21 995 l-2 958 22 -14 c13 -8 385 -230 828 -494z"/>
</g>
</svg>
