<?xml version="1.0" encoding="utf-8"?>
<!-- Generator: Adobe Illustrator 22.1.0, SVG Export Plug-In . SVG Version: 6.00 Build 0)  -->
<svg version="1.1" id="Capa_1" xmlns="http://www.w3.org/2000/svg" xmlns:xlink="http://www.w3.org/1999/xlink" x="0px" y="0px"
	 viewBox="0 0 200.7 38" style="enable-background:new 0 0 200.7 38;" xml:space="preserve">
<style type="text/css">
	.st0{fill:#E9EDF2;}
</style>
<title>paymethod</title>
<desc>Created with Sketch.</desc>
<g id="ico_visa_logo">
	<g id="visa-pay-logo-2">
		<path id="Shape" class="st0" d="M126.8,0.9H73.3c-0.9,0-1.5,0.7-1.5,1.5v33.7c0,0.8,0.6,1.5,1.5,1.5h53.5c0.8,0,1.5-0.7,1.5-1.5
			V2.4C128.3,1.6,127.6,0.9,126.8,0.9z M76.2,12h6c0.8,0,1.5,0.3,1.7,1.2l1.3,6.3c-1.3-3.3-4.4-6-9.1-7.2L76.2,12z M83.5,26.4
			L80,14.5c2.5,1.6,4.6,4.1,5.4,5.9l0.4,1.5l3.8-9.7h4.1l-6.1,14.2H83.5z M96.7,26.4h-3.9l2.4-14.3h3.9L96.7,26.4z M103.5,26.6
			c-1.7,0-3.4-0.4-4.3-0.8l0.5-3.2l0.5,0.2c1.3,0.5,2.1,0.7,3.7,0.7c1.1,0,2.3-0.4,2.3-1.4c0-0.6-0.5-1.1-2-1.8
			c-1.5-0.7-3.4-1.8-3.4-3.9c0-2.8,2.7-4.7,6.6-4.7c1.5,0,2.7,0.3,3.5,0.6l-0.5,3.1l-0.4-0.2c-0.7-0.3-1.6-0.6-2.9-0.5
			c-1.5,0-2.2,0.6-2.2,1.2c0,0.7,0.8,1.1,2.2,1.8c2.2,1,3.3,2.3,3.3,3.9C110.2,24.7,107.6,26.6,103.5,26.6z M120.3,26.4
			c0,0-0.4-1.6-0.5-2.1c-0.6,0-4.5,0-5,0c-0.2,0.4-0.8,2.1-0.8,2.1h-4.1l5.9-13.1c0.4-0.9,1.1-1.2,2-1.2h3l3.1,14.3L120.3,26.4z"/>
		<path class="st0" d="M118.3,17.2l-0.2-1.2c-0.2,0.5-0.5,1.4-0.5,1.4s-1.2,3.2-1.5,4h3.2C119.1,20.6,118.3,17.2,118.3,17.2z"/>
	</g>
</g>
<g id="ico_mastercard" transform="translate(221.000000, 0.000000)">
	<g id="mastercard">
		<path class="st0" d="M-62.3,16.8c-1.1,0-1.9,0.3-1.9,0.3l-0.2,1.3c0,0,0.7-0.3,1.7-0.3c0.6,0,1,0.1,1,0.5c0,0.3-0.1,0.4-0.1,0.4
			s-0.5,0-0.7,0c-1.3,0-2.7,0.6-2.7,2.3c0,1.4,0.9,1.7,1.5,1.7c1.1,0,1.6-0.7,1.6-0.7l-0.1,0.6h1.4l0.6-4.2
			C-60.2,16.9-61.7,16.8-62.3,16.8z M-63.1,21.8c-0.5,0-0.6-0.4-0.6-0.6c0-0.4,0.2-0.9,1.4-0.9c0.3,0,0.3,0,0.3,0
			C-61.9,20.5-62.1,21.8-63.1,21.8z"/>
		<path class="st0" d="M-57.4,18.2c0.2,0,1.1,0.1,1.1,0.1l0.2-1.4c0,0-0.5-0.1-1.4-0.1c-1.1,0-2.3,0.5-2.3,2c0,1.8,1.9,1.6,1.9,2.3
			c0,0.5-0.5,0.5-1,0.5c-0.7,0-1.4-0.2-1.4-0.2l-0.2,1.4c0,0,0.4,0.2,1.7,0.2c0.3,0,2.3,0.1,2.3-2c0-1.9-1.8-1.5-1.8-2.3
			C-58.2,18.4-57.9,18.2-57.4,18.2z"/>
		<path class="st0" d="M-54.1,18.4h0.8l0.2-1.5h-0.8l0.2-0.9h-1.5c0,0-0.9,5.1-0.9,5.7c0,0.9,0.5,1.3,1.2,1.3c0.6,0,1-0.2,1.2-0.2
			l0.2-1.3c-0.1,0-0.3,0-0.4,0c-0.5,0-0.6-0.3-0.6-0.5L-54.1,18.4z"/>
		<path class="st0" d="M-26.2,27.4l-0.1-0.1l0,0h0.1v-0.1v-0.1c0,0,0,0-0.1,0h-0.1h-0.2v0.5h0.1v-0.2l0,0h0.1
			C-26.3,27.4-26.3,27.4-26.2,27.4v0.1h0.1L-26.2,27.4z M-26.4,27.3L-26.4,27.3l-0.1-0.2h0.1h0.1l0,0l0,0
			C-26.2,27.2-26.3,27.2-26.4,27.3C-26.3,27.3-26.3,27.3-26.4,27.3z"/>
		<polygon class="st0" points="-67.1,15.6 -68.6,20.1 -68.7,15.6 -70.9,15.6 -72.1,22.9 -70.6,22.9 -69.7,17.4 -69.6,22.9 
			-68.5,22.9 -66.5,17.4 -67.4,22.9 -65.8,22.9 -64.6,15.6 		"/>
		<path class="st0" d="M-37.3,16.8c-1.1,0-1.9,0.3-1.9,0.3l-0.2,1.3c0,0,0.7-0.3,1.7-0.3c0.6,0,1,0.1,1,0.5c0,0.3-0.1,0.4-0.1,0.4
			s-0.5,0-0.7,0c-1.3,0-2.7,0.6-2.7,2.3c0,1.4,0.9,1.7,1.5,1.7c1.1,0,1.6-0.7,1.6-0.7l-0.1,0.6h1.4l0.6-4.2
			C-35.2,16.9-36.7,16.8-37.3,16.8z M-38,21.8c-0.5,0-0.6-0.4-0.6-0.6c0-0.4,0.2-0.9,1.4-0.9c0.3,0,0.3,0,0.3,0
			C-36.9,20.5-37.1,21.8-38,21.8z"/>
		<path class="st0" d="M-26.1,22.3c0-0.1-0.1-0.1-0.2-0.2c-0.1,0-0.2-0.1-0.2-0.1c-0.1,0-0.2,0-0.2,0.1c-0.1,0-0.1,0.1-0.2,0.2
			c0,0.1-0.1,0.2-0.1,0.2s0,0.2,0.1,0.2c0,0.1,0.1,0.1,0.2,0.2c0.1,0,0.2,0.1,0.2,0.1c0.1,0,0.2,0,0.2-0.1c0.1,0,0.1-0.1,0.2-0.2
			c0-0.1,0.1-0.2,0.1-0.2C-26.1,22.4-26.1,22.3-26.1,22.3z M-26.2,22.7c0,0.1-0.1,0.1-0.1,0.1c-0.1,0-0.1,0.1-0.2,0.1
			s-0.1,0-0.2-0.1c-0.1,0-0.1-0.1-0.1-0.1c0-0.1-0.1-0.1-0.1-0.2s0-0.1,0.1-0.2c0-0.1,0.1-0.1,0.1-0.1c0.1,0,0.1-0.1,0.2-0.1
			s0.1,0,0.2,0.1c0.1,0,0.1,0.1,0.1,0.1c0,0.1,0.1,0.1,0.1,0.2S-26.2,22.6-26.2,22.7z"/>
		<path class="st0" d="M-26.4,22.6l-0.1-0.1l0,0h0.1v-0.1v-0.1c0,0,0,0-0.1,0h-0.1h-0.2v0.5h0.1v-0.2l0,0h0.1
			C-26.5,22.6-26.5,22.6-26.4,22.6L-26.4,22.6L-26.4,22.6L-26.4,22.6z M-26.6,22.5L-26.6,22.5l-0.1-0.2h0.1h0.1l0,0l0,0
			C-26.4,22.4-26.4,22.4-26.6,22.5C-26.5,22.5-26.5,22.5-26.6,22.5z"/>
		<path class="st0" d="M-32,16.9c-0.7,0-1.2,0.9-1.2,0.9l0.1-0.9h-1.4l-1,6h1.6c0.5-2.6,0.5-4.6,1.6-4.2c0.2-1,0.4-1.4,0.6-1.8
			C-31.7,16.9-31.8,16.9-32,16.9z"/>
		<path class="st0" d="M-28.1,15.6l-0.3,2.1c0,0-0.6-0.8-1.5-0.8c-1.4,0-2.6,1.7-2.6,3.7c0,1.3,0.6,2.5,1.9,2.5
			c0.9,0,1.4-0.6,1.4-0.6l-0.1,0.6h1.5l1.2-7.3L-28.1,15.6z M-30,21.5c-0.6,0-0.8-0.5-0.8-1.2c0-1.2,0.5-2,1.2-2
			c0.6,0,0.8,0.4,0.8,1.3C-28.8,20.4-29.2,21.5-30,21.5z"/>
		<path class="st0" d="M-22.3,0.9h-53.6c-0.8,0-1.5,0.7-1.5,1.5v33.7c0,0.8,0.6,1.5,1.5,1.5h53.6c0.8,0,1.5-0.7,1.5-1.5V2.4
			C-20.9,1.6-21.5,0.9-22.3,0.9z M-25.9,27.5c0,0.1-0.1,0.1-0.2,0.2c-0.1,0-0.2,0.1-0.2,0.1c-0.1,0-0.2,0-0.2-0.1
			c-0.1,0-0.1-0.1-0.2-0.2c0-0.1-0.1-0.2-0.1-0.2c0-0.1,0-0.2,0.1-0.2c0-0.1,0.1-0.1,0.2-0.2c0.1,0,0.2-0.1,0.2-0.1
			c0.1,0,0.2,0,0.2,0.1c0.1,0,0.1,0.1,0.2,0.2c0,0.1,0.1,0.2,0.1,0.2S-25.9,27.4-25.9,27.5z M-24.9,19.2c0,8-6.5,14.5-14.5,14.5
			c-3.7,0-7.2-1.4-9.7-3.7c-2.6,2.3-6,3.7-9.7,3.7c-8,0-14.5-6.5-14.5-14.5s6.4-14.4,14.4-14.5h0.1c3.7,0,7.1,1.4,9.7,3.7
			c2.6-2.3,6-3.7,9.7-3.7C-31.4,4.7-24.9,11.2-24.9,19.2L-24.9,19.2z"/>
		<path class="st0" d="M-48.6,20.5c0,0,0.2-1,0.2-1.4c0-1-0.5-2.3-2.2-2.3c-1.6,0-2.7,1.7-2.7,3.6c0,2.2,1.4,2.7,2.7,2.7
			c1.1,0,1.6-0.3,1.6-0.3l0.3-1.5c0,0-0.9,0.4-1.6,0.4c-1.7,0-1.4-1.2-1.4-1.2S-48.6,20.5-48.6,20.5z M-50.6,18.2
			c0.9,0,0.7,1,0.7,1.1h-1.7C-51.6,19.1-51.5,18.2-50.6,18.2z"/>
		<path class="st0" d="M-41.4,17c0.8,0,1.4,0.4,1.4,0.4l0.3-1.6c0,0-0.9-0.4-1.7-0.4c-1.8,0-3.5,1.5-3.5,4.4c0,1.9,0.9,3.2,2.8,3.2
			c0.5,0,1.3-0.2,1.3-0.2l0.3-1.7c0,0-0.8,0.4-1.3,0.4c-1.1,0-1.5-0.8-1.5-1.7C-43.4,18-42.4,17-41.4,17z"/>
		<path class="st0" d="M-45,16.9c-0.7,0-1.2,0.9-1.2,0.9l0.1-0.9h-1.4l-1,6h1.6c0.4-2.6,0.5-4.6,1.6-4.2c0.2-1,0.4-1.4,0.6-1.8
			C-44.7,16.9-44.8,16.9-45,16.9z"/>
	</g>
</g>
</svg>
