<?xml version="1.0" encoding="utf-8"?>
<!-- Generator: Adobe Illustrator 23.0.6, SVG Export Plug-In . SVG Version: 6.00 Build 0)  -->
<svg version="1.1" id="Capa_1" xmlns="http://www.w3.org/2000/svg" xmlns:xlink="http://www.w3.org/1999/xlink" x="0px" y="0px"
	 viewBox="0 0 20 16" style="enable-background:new 0 0 20 16;" xml:space="preserve">
<style type="text/css">
	.st0{fill:#FFFFFF;}
</style>
<path class="st0" d="M17,2.8C17,9.6,11.5,15,4.8,15c-0.6,0-1.1-0.4-1.2-1L3,11.5c-0.1-0.6,0.2-1.2,0.7-1.4l2.8-1.2
	C7,8.6,7.6,8.8,8,9.2l0.9,1.1c1.4-0.8,2.6-2,3.4-3.4L11.2,6c-0.4-0.4-0.6-1-0.4-1.5L12,1.8c0.2-0.6,0.8-0.9,1.4-0.7L16,1.6
	C16.6,1.8,17,2.3,17,2.8z M15.7,2.9l-2.5-0.6L12.1,5l1.9,1.5c-1.3,2.7-2.7,4.1-5.4,5.4L7,10.1l-2.7,1.2l0.6,2.5
	C10.8,13.7,15.7,8.8,15.7,2.9z"/>
</svg>
