<?xml version="1.0" encoding="utf-8"?>
<!-- Generator: Adobe Illustrator 23.0.6, SVG Export Plug-In . SVG Version: 6.00 Build 0)  -->
<svg version="1.1" id="Capa_1" xmlns="http://www.w3.org/2000/svg" xmlns:xlink="http://www.w3.org/1999/xlink" x="0px" y="0px"
	 viewBox="0 0 20 16" style="enable-background:new 0 0 20 16;" xml:space="preserve">
<style type="text/css">
	.st0{fill:#8492A6;}
</style>
<g>
	<path class="st0" d="M16.5,5l-2,2l-1,0.9l-6.7,6.7L3.7,15c0,0,0,0-0.1,0C3.3,15,3,14.7,3,14.3l0.3-3.1L10,4.5l1-1l2-2
		C13.3,1.2,13.8,1,14.2,1s0.9,0.2,1.2,0.5l1,1C17.2,3.2,17.2,4.3,16.5,5z M12.6,7.1l0.8-0.8l-1.6-1.6l-0.8,0.8l-6.3,6.3l-0.2,1.9
		l1.8-0.2L12.6,7.1z M15.6,3.5l-1-1c-0.1-0.1-0.2-0.1-0.3-0.1s-0.2,0-0.3,0.1l-1.2,1.2l1.6,1.6l1.2-1.2C15.7,3.9,15.7,3.6,15.6,3.5z
		"/>
</g>
</svg>
