<?xml version="1.0" encoding="utf-8"?>
<!-- Generator: Adobe Illustrator 23.0.6, SVG Export Plug-In . SVG Version: 6.00 Build 0)  -->
<svg version="1.1" id="Capa_1" xmlns="http://www.w3.org/2000/svg" xmlns:xlink="http://www.w3.org/1999/xlink" x="0px" y="0px"
	 viewBox="0 0 20 16" style="enable-background:new 0 0 20 16;" xml:space="preserve">
<style type="text/css">
	.st0{fill:#FFFFFF;}
</style>
<path class="st0" d="M17,4.1v7.9c0,0.7-0.6,1.3-1.3,1.3H4.3c-0.7,0-1.3-0.6-1.3-1.3V4.1c0-0.7,0.6-1.3,1.3-1.3h11.4
	C16.4,2.8,17,3.3,17,4.1z M4.3,4.1v1.1C4.9,5.7,5.9,6.5,8,8.1c0.5,0.4,1.4,1.2,2,1.2c0.6,0,1.5-0.9,2-1.2c2.1-1.6,3.1-2.4,3.7-2.9
	V4.1H4.3z M15.7,11.9V6.9c-0.6,0.5-1.5,1.2-2.9,2.3c-0.6,0.5-1.6,1.5-2.8,1.5c-1.2,0-2.2-1-2.8-1.5C5.8,8.1,4.9,7.4,4.3,6.9v5.1
	H15.7z"/>
</svg>
