<?xml version="1.0" encoding="utf-8"?>
<!-- Generator: Adobe Illustrator 23.0.6, SVG Export Plug-In . SVG Version: 6.00 Build 0)  -->
<svg version="1.1" id="Capa_1" xmlns="http://www.w3.org/2000/svg" xmlns:xlink="http://www.w3.org/1999/xlink" x="0px" y="0px"
	 viewBox="0 0 20 16" style="enable-background:new 0 0 20 16;" xml:space="preserve">
<style type="text/css">
	.st0{fill:#FFFFFF;}
</style>
<g>
	<path class="st0" d="M16.1,13v0.7c0,0.7-0.6,1.3-1.3,1.3H5.2c-0.7,0-1.3-0.6-1.3-1.3V13c0-2,1.6-3.7,3.7-3.7c0.8,0,1.2,0.4,2.5,0.4
		s1.7-0.4,2.5-0.4C14.5,9.3,16.1,11,16.1,13z M14.8,13c0-1.3-1.1-2.4-2.4-2.4c-0.4,0-1,0.4-2.5,0.4c-1.4,0-2.1-0.4-2.5-0.4
		c-1.3,0-2.4,1.1-2.4,2.4v0.7h9.6V13z M6.1,4.9C6.1,2.8,7.8,1,10,1s3.9,1.8,3.9,3.9S12.2,8.9,10,8.9S6.1,7.1,6.1,4.9z M7.4,4.9
		c0,1.4,1.2,2.6,2.6,2.6s2.6-1.2,2.6-2.6S11.4,2.3,10,2.3S7.4,3.5,7.4,4.9z"/>
</g>
</svg>
