<svg version="1.1" id="Layer_1" xmlns="http://www.w3.org/2000/svg" xmlns:xlink="http://www.w3.org/1999/xlink" x="0px" y="0px"
	 width="100%" viewBox="0 0 777 138" enable-background="new 0 0 777 138" xml:space="preserve">
<path fill="#000000" opacity="1.000000" stroke="none" 
	d="
M526.000000,139.000000 
	C350.714417,139.000000 175.928848,139.000000 1.071638,139.000000 
	C1.071638,93.060417 1.071638,47.120697 1.071638,1.090487 
	C260.000000,1.090487 519.000000,1.090487 777.965515,1.090487 
	C777.965515,47.071102 777.965515,93.035568 777.965515,139.000000 
	C694.120667,139.000000 610.310364,139.000000 526.000000,139.000000 
M4.000000,85.500000 
	C4.000013,92.999321 3.906429,100.500160 4.028597,107.997490 
	C4.133057,114.408096 8.890018,118.985970 15.214612,118.995491 
	C26.047024,119.011810 36.880802,118.919312 47.710323,119.096947 
	C49.146748,119.120506 51.419422,120.124451 51.852676,121.238899 
	C55.821308,131.447144 63.329662,135.458817 73.951958,135.053635 
	C82.682747,134.720612 89.703613,129.262878 92.534454,119.981865 
	C94.904495,112.211594 91.365860,101.274872 85.310677,97.004593 
	C78.983917,92.542793 72.149353,91.843178 64.968170,94.055084 
	C57.621166,96.318062 53.547195,101.792000 51.638729,108.650261 
	C39.230625,108.650261 27.156900,108.650261 15.351442,108.650261 
	C15.351442,77.561928 15.351442,46.823963 15.351442,16.000031 
	C83.026047,16.000031 150.349243,15.997536 217.672424,16.021530 
	C218.789337,16.021927 219.945999,16.213037 221.016678,16.537571 
	C229.883270,19.225126 234.493362,26.484518 235.021759,38.066750 
	C235.592361,50.574474 236.312012,63.075619 237.010941,75.577164 
	C237.322983,81.158585 237.730042,86.734863 238.118103,92.311806 
	C238.500931,97.813629 238.914215,103.313324 239.327667,108.999939 
	C227.873962,108.999939 217.385422,109.108704 206.905106,108.864105 
	C205.575348,108.833069 204.046127,107.147011 203.032623,105.887161 
	C200.910263,103.248947 199.560379,99.775154 197.019989,97.728409 
	C190.025787,92.093323 181.844788,90.966690 173.788986,94.893288 
	C165.797272,98.788643 161.818802,105.505219 161.895081,114.801842 
	C161.972687,124.262726 169.388733,133.218155 178.269821,134.942719 
	C188.804413,136.988327 199.433365,131.666336 202.680801,122.391678 
	C203.694458,119.496704 204.912811,118.944969 207.499222,118.966393 
	C217.497711,119.049187 227.497284,119.000679 237.496460,118.999794 
	C245.926102,118.999046 250.360413,114.886856 249.909363,106.391022 
	C249.266602,94.284370 247.880890,82.219193 247.036652,70.120651 
	C246.211411,58.295006 245.769241,46.442574 244.937317,34.617493 
	C244.691238,31.119835 244.131927,27.519436 242.964233,24.233315 
	C238.286499,11.069294 227.819092,5.213212 214.791397,5.149073 
	C148.965103,4.824996 83.136337,4.972941 17.308527,5.041937 
	C10.721933,5.048841 3.797915,9.380053 3.911376,18.506567 
	C4.184817,40.501347 4.000000,62.501823 4.000000,85.500000 
M343.656616,73.129898 
	C340.500641,61.870544 333.899384,53.510612 322.940643,49.016895 
	C314.764282,45.664097 306.409637,45.571682 297.625183,46.856789 
	C267.104218,51.321793 261.475677,86.425827 273.414795,105.717163 
	C282.144379,119.822464 300.636902,126.845398 316.406036,121.475204 
	C324.489410,118.722397 330.221954,117.985672 335.289642,125.609711 
	C335.780640,126.348404 338.439728,126.606918 339.276001,125.987015 
	C342.695099,123.452591 345.797211,120.490578 349.401062,117.350548 
	C346.564087,114.759872 344.924255,113.090256 343.107971,111.641983 
	C339.932220,109.109703 337.751556,106.587372 340.927338,102.437317 
	C342.040222,100.982994 342.439789,98.932503 342.981018,97.099876 
	C345.234711,89.468948 345.349030,81.730034 343.656616,73.129898 
M413.018982,78.793205 
	C409.932098,84.293571 408.622101,90.140137 408.951294,96.487564 
	C409.434204,105.799011 412.535400,113.695274 420.963898,118.385506 
	C430.254089,123.555298 439.689697,123.779640 448.862366,117.702881 
	C449.603760,117.211708 450.637756,117.162148 451.709015,116.858223 
	C451.911591,118.371651 452.076233,119.601768 452.226349,120.723465 
	C456.619476,120.723465 460.695343,120.723465 464.762360,120.723465 
	C464.762360,103.401024 464.762360,86.356216 464.762360,69.180344 
	C460.427673,69.180344 456.331848,69.180344 452.261810,69.180344 
	C452.039612,70.563660 451.846588,71.765533 451.661011,72.920906 
	C450.784271,72.920906 450.194733,73.100662 449.812653,72.895012 
	C434.525391,64.666412 425.613922,65.933388 413.018982,78.793205 
M557.370911,107.895218 
	C561.296143,115.755318 567.842773,119.232933 576.322510,121.236443 
	C594.825378,125.608078 613.842712,112.222961 610.303467,89.670166 
	C606.919617,68.107780 581.027893,63.545696 566.668396,71.808662 
	C554.679199,78.707664 552.298096,94.085220 557.370911,107.895218 
M191.513962,68.000000 
	C182.192154,68.734482 173.202942,67.522255 165.559265,61.808167 
	C155.141068,54.019966 143.542236,51.691826 130.761353,51.879436 
	C103.775780,52.275562 76.780350,51.998650 49.788967,52.004025 
	C48.459694,52.004288 46.855118,51.605740 45.865330,52.201424 
	C44.360294,53.107204 42.528656,54.570961 42.228146,56.075787 
	C41.911671,57.660572 42.724297,60.255001 43.960762,61.173176 
	C45.617634,62.403538 48.154076,62.919983 50.316017,62.928337 
	C78.306656,63.036533 106.306015,63.386127 134.284592,62.794983 
	C144.364639,62.582005 152.417068,66.020218 160.686188,70.919769 
	C166.068253,74.108711 172.243164,76.939621 178.342606,77.706696 
	C187.363678,78.841179 196.633682,77.946823 205.796707,78.027206 
	C209.255310,78.057549 211.007324,76.745766 211.040939,73.103661 
	C211.077042,69.192680 209.167465,67.854248 205.502670,67.968391 
	C201.174927,68.103188 196.839767,68.000015 191.513962,68.000000 
M352.360626,107.884171 
	C360.648590,125.867851 373.995819,124.151222 388.702271,116.962601 
	C388.927551,118.432159 389.115448,119.657860 389.273315,120.687637 
	C393.699768,120.687637 397.771179,120.687637 401.717499,120.687637 
	C401.717499,103.322556 401.717499,86.271133 401.717499,69.278503 
	C397.028442,69.278503 392.626892,69.278503 388.501068,69.278503 
	C387.992004,79.258141 387.756256,88.969131 386.913757,98.627197 
	C386.341553,105.186943 381.049286,109.461815 375.186981,108.999252 
	C369.488617,108.549629 366.002960,103.986313 366.000732,96.961716 
	C365.997772,87.711632 366.000000,78.461548 366.000000,69.279327 
	C360.693237,69.279327 355.959442,69.279327 351.000000,69.279327 
	C351.000000,75.355667 350.868317,81.158348 351.034454,86.952484 
	C351.227234,93.675285 351.681458,100.390579 352.360626,107.884171 
M672.998108,103.272430 
	C672.521423,94.247543 669.548340,86.797409 659.820312,83.496155 
	C662.420837,81.713387 665.205505,80.713982 666.539856,78.736137 
	C673.202087,68.860985 671.229919,54.611561 657.925415,50.042664 
	C644.294922,45.361782 630.179565,49.332256 616.200012,47.765106 
	C616.200012,72.522560 616.200012,96.564789 616.200012,120.999016 
	C627.497864,120.999016 638.642273,121.598953 649.690979,120.828125 
	C660.465149,120.076447 670.418640,116.926270 672.998108,103.272430 
M481.492706,56.005241 
	C480.995178,56.994709 480.125916,57.963200 480.068695,58.977505 
	C479.884583,62.240574 480.000122,65.520546 480.000122,69.151962 
	C476.722778,69.151962 473.971039,69.151962 471.263184,69.151962 
	C471.263184,73.282654 471.263184,77.023529 471.263184,81.138771 
	C474.262634,81.138771 477.002289,81.138771 479.517456,81.138771 
	C479.803497,81.662506 479.944733,81.800644 479.945190,81.939247 
	C479.970947,89.594818 479.911957,97.251472 480.020752,104.905746 
	C480.127045,112.384918 484.472809,120.506393 492.968781,120.982826 
	C497.091217,121.213997 501.275604,121.350151 505.365387,120.910461 
	C510.983795,120.306442 511.368591,119.371147 509.420959,113.908119 
	C508.621582,111.665909 507.684113,109.472939 506.780334,107.183792 
	C505.112915,107.829712 503.710449,108.530296 502.226135,108.915619 
	C499.011475,109.750107 495.136932,107.295609 495.060699,104.088158 
	C494.880188,96.492577 495.002655,88.889801 495.002655,80.907776 
	C499.556976,80.907776 503.639893,80.907776 507.760803,80.907776 
	C507.760803,76.776146 507.760803,73.039841 507.760803,68.918274 
	C503.455322,68.918274 499.373047,68.918274 494.926727,68.918274 
	C494.926727,64.124115 494.926727,59.705948 494.926727,54.601662 
	C490.457520,55.101318 486.437469,55.550755 481.492706,56.005241 
M515.000000,87.500626 
	C515.000000,98.598518 515.000000,109.696411 515.000000,120.708107 
	C520.319702,120.708107 525.058899,120.708107 530.000000,120.708107 
	C530.000000,111.605461 529.992920,102.793526 530.001953,93.981606 
	C530.011414,84.738647 537.025085,79.404106 544.960022,82.498230 
	C550.658142,84.720123 551.515991,82.002930 553.518738,78.944122 
	C554.304688,77.743759 555.141663,76.418190 555.362000,75.053818 
	C555.555420,73.855957 555.349121,71.838570 554.583008,71.358719 
	C547.712891,67.055435 538.239685,66.258018 531.868774,71.603424 
	C530.959961,72.365967 529.758240,72.779427 528.344055,73.542122 
	C528.087219,71.622902 527.923279,70.398216 527.774353,69.285622 
	C523.375549,69.285622 519.292358,69.285622 515.000000,69.285622 
	C515.000000,75.213425 515.000000,80.857330 515.000000,87.500626 
M768.604309,105.079247 
	C768.955566,108.988304 767.459961,111.955986 763.878418,113.599457 
	C752.247498,118.936577 742.945129,115.286346 734.368774,107.184883 
	C729.774048,111.688332 729.936340,112.451118 734.948608,116.029190 
	C743.314453,122.001221 752.653198,123.045303 762.199341,120.793076 
	C773.290833,118.176224 777.153198,109.472290 773.974182,101.500259 
	C771.718994,95.844925 766.502625,94.368881 761.291931,93.002602 
	C754.957214,91.341606 748.409302,90.231613 742.347107,87.872215 
	C736.957581,85.774597 736.458374,81.271942 741.007629,77.720245 
	C743.507385,75.768600 746.993347,74.610870 750.192017,74.119942 
	C757.148010,73.052338 763.702698,74.626945 768.985474,79.288048 
	C772.396851,76.581879 773.308167,74.956497 769.148560,72.437088 
	C760.418091,67.149147 751.522583,66.897377 742.198669,69.960876 
	C735.966736,72.008476 732.321533,76.412125 732.001160,82.084824 
	C731.689453,87.603516 735.082031,92.684280 741.448914,94.669922 
	C746.643127,96.289833 752.145813,96.916862 757.507751,98.003616 
	C761.825439,98.878716 766.169861,99.730240 768.604309,105.079247 
M714.014648,110.474342 
	C712.955139,111.207481 711.882385,111.922333 710.838257,112.676758 
	C704.617188,117.171684 698.263000,116.673836 691.765320,113.298653 
	C685.813904,110.207222 683.920593,105.070480 683.976929,98.741486 
	C684.064087,88.950424 684.000000,79.158005 684.000000,69.185715 
	C681.872070,69.185715 680.134705,69.185715 678.000793,69.185715 
	C678.000793,80.482368 677.339966,91.655693 678.169189,102.717323 
	C679.191101,116.348579 690.869324,123.248894 704.199707,121.186279 
	C709.203918,120.411972 713.908447,117.700310 718.892822,115.817818 
	C718.953979,117.057861 719.046143,118.927238 719.135376,120.737152 
	C721.278015,120.737152 723.017822,120.737152 724.746094,120.737152 
	C724.746094,103.389503 724.746094,86.305466 724.746094,69.255180 
	C722.742493,69.255180 721.008240,69.255180 719.000000,69.255180 
	C719.000000,77.144897 718.844116,84.787407 719.048401,92.420273 
	C719.217651,98.744987 718.486267,104.722992 714.014648,110.474342 
M342.977417,16.230444 
	C341.780670,19.818941 340.583923,23.407436 339.336090,27.149149 
	C338.719940,26.818481 338.076508,26.692678 337.936493,26.356937 
	C337.513000,25.341497 337.358551,24.216814 336.968994,23.183805 
	C333.281860,13.406055 335.701141,14.838255 327.346313,15.272075 
	C329.307648,21.380827 331.279022,27.495283 333.231903,33.615650 
	C334.045135,36.164520 334.678131,38.278805 338.403107,38.173843 
	C341.837830,38.077061 343.012787,36.687832 343.689697,33.792568 
	C344.092987,32.067455 344.908386,30.438681 346.012482,27.508841 
	C347.471680,31.937466 348.448486,34.901962 349.433044,37.890099 
	C351.877350,37.890099 354.182831,37.890099 356.486725,37.890099 
	C359.112091,30.357557 361.701385,22.928505 364.400879,15.183290 
	C361.462067,15.183290 359.344208,15.183290 357.574463,15.183290 
	C356.028625,19.301193 354.587402,23.140358 352.638153,28.332903 
	C350.978058,22.963749 349.776855,19.078720 348.485016,14.900649 
	C346.700348,15.064442 344.917053,15.228108 342.977417,16.230444 
M273.000000,24.492540 
	C273.000000,28.927198 273.000000,33.361855 273.000000,37.741234 
	C275.601471,37.741234 277.671448,37.741234 280.115936,37.741234 
	C280.115936,34.743244 280.115936,31.999565 280.115936,29.508060 
	C284.040985,28.967768 287.583618,28.628363 291.064606,27.965263 
	C295.953796,27.033913 299.447174,23.355322 299.585480,17.648890 
	C299.683044,13.623031 298.854248,8.584877 293.946075,7.615050 
	C287.172699,6.276672 280.174744,6.074888 273.000000,5.359037 
	C273.000000,12.231171 273.000000,17.863787 273.000000,24.492540 
M504.663757,32.888130 
	C506.900757,28.177984 507.254120,23.178209 504.268646,18.979568 
	C500.217499,13.282180 494.159515,14.148335 487.933289,16.016405 
	C487.933289,12.574407 487.933289,9.461782 487.933289,6.190285 
	C485.859406,6.190285 484.120178,6.190285 482.190704,6.190285 
	C482.190704,16.806046 482.190704,27.232096 482.190704,37.999432 
	C487.129913,37.999432 491.980652,38.513569 496.643158,37.799198 
	C499.278198,37.395454 501.603790,34.972061 504.663757,32.888130 
M461.485199,6.000393 
	C459.308685,5.817508 457.542877,5.895882 457.943970,9.002190 
	C458.232880,11.240033 458.000214,13.545219 458.000214,15.904301 
	C455.835754,15.465803 454.127594,15.046767 452.395844,14.782588 
	C447.174103,13.986024 441.409424,17.215731 440.122620,21.600885 
	C438.382782,27.529648 440.713623,35.439472 445.681427,36.654255 
	C451.424347,38.058575 457.585022,37.754356 463.981171,38.222454 
	C463.981171,27.622663 464.002197,17.515560 463.914978,7.409380 
	C463.910919,6.936945 462.941254,6.472844 461.485199,6.000393 
M423.029175,31.982512 
	C422.098694,31.179239 421.168213,30.375965 419.432129,28.877220 
	C426.049774,28.877220 431.335724,28.877220 436.595825,28.877220 
	C437.453735,20.495886 434.724792,16.141235 427.547089,14.210158 
	C422.743683,12.917858 416.219849,15.829521 414.385071,20.084539 
	C411.818573,26.036417 413.665253,34.100281 418.193970,36.716793 
	C422.986786,39.485882 431.551666,38.097454 435.295593,33.591400 
	C434.079437,32.393185 432.828278,31.160446 432.469299,30.806772 
	C428.844635,31.308430 426.350769,31.653582 423.029175,31.982512 
M383.096863,15.021379 
	C382.599762,14.994753 382.065491,15.078248 381.611237,14.924793 
	C375.844666,12.976848 369.796906,15.081004 367.627747,19.861864 
	C363.966248,27.931854 366.681976,33.290478 370.947937,36.361217 
	C375.601166,39.710720 384.503601,38.296501 388.064880,33.782288 
	C386.927795,32.488529 385.778839,31.181246 384.767487,30.030571 
	C378.586792,33.113327 375.996429,32.817112 373.458832,28.999504 
	C377.839966,28.999504 382.171997,29.217821 386.456665,28.863522 
	C387.706177,28.760199 389.940338,26.834398 389.810699,26.067245 
	C389.103760,21.885021 388.791138,17.235184 383.096863,15.021379 
M524.513428,17.989084 
	C523.217957,21.102186 521.922546,24.215288 520.264587,28.199560 
	C514.716858,14.169346 514.716858,14.169346 507.897705,15.737450 
	C508.949219,18.270702 509.894226,20.813278 511.041046,23.261303 
	C514.760071,31.200121 518.897034,39.088135 511.312408,47.491421 
	C516.217651,48.522144 519.570068,48.672119 521.070618,43.409065 
	C522.247009,39.283051 524.399841,35.435612 526.116455,31.463379 
	C528.427368,26.115984 530.736023,20.767597 533.045654,15.419630 
	C532.752380,14.983286 532.459106,14.546942 532.165833,14.110598 
	C529.767456,15.174561 527.369080,16.238523 524.513428,17.989084 
M313.494446,15.000000 
	C305.283112,15.009842 301.929474,18.524117 302.000031,27.045002 
	C302.055115,33.702244 306.597534,38.006420 313.561401,38.000000 
	C320.474243,37.993626 324.960449,33.648907 325.000000,26.922184 
	C325.047607,18.823259 321.720520,15.088985 313.494446,15.000000 
M409.927490,21.526394 
	C410.624725,19.914642 411.321930,18.302893 412.555511,15.451325 
	C406.070557,15.451325 400.189728,15.451325 394.226685,15.451325 
	C394.226685,22.920609 394.226685,30.315672 394.226685,37.786484 
	C396.189789,37.786484 397.923889,37.786484 400.000000,37.786484 
	C400.000000,34.457813 399.987671,31.336857 400.002533,28.216030 
	C400.034668,21.465252 402.767639,19.620184 409.927490,21.526394 
z"/>
<path fill="#FFFFFF" opacity="1.000000" stroke="none" 
	d="
M4.000000,85.000000 
	C4.000000,62.501823 4.184817,40.501347 3.911376,18.506567 
	C3.797915,9.380053 10.721933,5.048841 17.308527,5.041937 
	C83.136337,4.972941 148.965103,4.824996 214.791397,5.149073 
	C227.819092,5.213212 238.286499,11.069294 242.964233,24.233315 
	C244.131927,27.519436 244.691238,31.119835 244.937317,34.617493 
	C245.769241,46.442574 246.211411,58.295006 247.036652,70.120651 
	C247.880890,82.219193 249.266602,94.284370 249.909363,106.391022 
	C250.360413,114.886856 245.926102,118.999046 237.496460,118.999794 
	C227.497284,119.000679 217.497711,119.049187 207.499222,118.966393 
	C204.912811,118.944969 203.694458,119.496704 202.680801,122.391678 
	C199.433365,131.666336 188.804413,136.988327 178.269821,134.942719 
	C169.388733,133.218155 161.972687,124.262726 161.895081,114.801842 
	C161.818802,105.505219 165.797272,98.788643 173.788986,94.893288 
	C181.844788,90.966690 190.025787,92.093323 197.019989,97.728409 
	C199.560379,99.775154 200.910263,103.248947 203.032623,105.887161 
	C204.046127,107.147011 205.575348,108.833069 206.905106,108.864105 
	C217.385422,109.108704 227.873962,108.999939 239.327667,108.999939 
	C238.914215,103.313324 238.500931,97.813629 238.118103,92.311806 
	C237.730042,86.734863 237.322983,81.158585 237.010941,75.577164 
	C236.312012,63.075619 235.592361,50.574474 235.021759,38.066750 
	C234.493362,26.484518 229.883270,19.225126 221.016678,16.537571 
	C219.945999,16.213037 218.789337,16.021927 217.672424,16.021530 
	C150.349243,15.997536 83.026047,16.000031 15.351442,16.000031 
	C15.351442,46.823963 15.351442,77.561928 15.351442,108.650261 
	C27.156900,108.650261 39.230625,108.650261 51.638729,108.650261 
	C53.547195,101.792000 57.621166,96.318062 64.968170,94.055084 
	C72.149353,91.843178 78.983917,92.542793 85.310677,97.004593 
	C91.365860,101.274872 94.904495,112.211594 92.534454,119.981865 
	C89.703613,129.262878 82.682747,134.720612 73.951958,135.053635 
	C63.329662,135.458817 55.821308,131.447144 51.852676,121.238899 
	C51.419422,120.124451 49.146748,119.120506 47.710323,119.096947 
	C36.880802,118.919312 26.047024,119.011810 15.214612,118.995491 
	C8.890018,118.985970 4.133057,114.408096 4.028597,107.997490 
	C3.906429,100.500160 4.000013,92.999321 4.000000,85.000000 
M63.365513,108.091309 
	C59.856510,114.216156 61.078373,119.490211 66.909531,123.388718 
	C70.651276,125.890312 75.908928,125.615952 79.309128,122.030792 
	C82.212646,118.969337 84.324898,115.371384 82.222206,110.663200 
	C78.245186,101.758133 70.996193,100.464142 63.365513,108.091309 
M192.977264,109.869377 
	C188.820892,103.457932 183.988129,102.004257 179.047668,104.016350 
	C173.652481,106.213623 170.961823,112.627754 173.074661,118.263184 
	C175.036377,123.495438 181.212936,126.369659 186.160675,124.352676 
	C192.324997,121.839745 195.089249,116.310219 192.977264,109.869377 
z"/>
<path fill="#FFFFFF" opacity="1.000000" stroke="none" 
	d="
M343.816620,73.532425 
	C345.349030,81.730034 345.234711,89.468948 342.981018,97.099876 
	C342.439789,98.932503 342.040222,100.982994 340.927338,102.437317 
	C337.751556,106.587372 339.932220,109.109703 343.107971,111.641983 
	C344.924255,113.090256 346.564087,114.759872 349.401062,117.350548 
	C345.797211,120.490578 342.695099,123.452591 339.276001,125.987015 
	C338.439728,126.606918 335.780640,126.348404 335.289642,125.609711 
	C330.221954,117.985672 324.489410,118.722397 316.406036,121.475204 
	C300.636902,126.845398 282.144379,119.822464 273.414795,105.717163 
	C261.475677,86.425827 267.104218,51.321793 297.625183,46.856789 
	C306.409637,45.571682 314.764282,45.664097 322.940643,49.016895 
	C333.899384,53.510612 340.500641,61.870544 343.816620,73.532425 
M329.000000,83.535469 
	C329.197296,74.155441 325.501038,66.971313 317.047607,62.535469 
	C308.648285,58.128014 300.116882,58.780315 292.829865,64.203583 
	C284.355103,70.510811 281.675201,79.505394 283.933807,90.098663 
	C287.232574,105.570633 301.568573,111.980469 314.710632,106.989136 
	C324.856018,103.135925 329.157928,95.098373 329.000000,83.535469 
z"/>
<path fill="#FFFFFF" opacity="1.000000" stroke="none" 
	d="
M413.184692,78.456512 
	C425.613922,65.933388 434.525391,64.666412 449.812653,72.895012 
	C450.194733,73.100662 450.784271,72.920906 451.661011,72.920906 
	C451.846588,71.765533 452.039612,70.563660 452.261810,69.180344 
	C456.331848,69.180344 460.427673,69.180344 464.762360,69.180344 
	C464.762360,86.356216 464.762360,103.401024 464.762360,120.723465 
	C460.695343,120.723465 456.619476,120.723465 452.226349,120.723465 
	C452.076233,119.601768 451.911591,118.371651 451.709015,116.858223 
	C450.637756,117.162148 449.603760,117.211708 448.862366,117.702881 
	C439.689697,123.779640 430.254089,123.555298 420.963898,118.385506 
	C412.535400,113.695274 409.434204,105.799011 408.951294,96.487564 
	C408.622101,90.140137 409.932098,84.293571 413.184692,78.456512 
M443.393799,107.105164 
	C450.332733,102.931129 452.256836,94.756538 448.057831,87.289696 
	C444.622223,81.180260 437.609161,79.076981 431.292572,82.261627 
	C424.679626,85.595673 421.971985,94.182861 424.948395,101.106712 
	C427.693878,107.493446 435.806152,111.326233 443.393799,107.105164 
z"/>
<path fill="#FFFFFF" opacity="1.000000" stroke="none" 
	d="
M557.193481,107.539368 
	C552.298096,94.085220 554.679199,78.707664 566.668396,71.808662 
	C581.027893,63.545696 606.919617,68.107780 610.303467,89.670166 
	C613.842712,112.222961 594.825378,125.608078 576.322510,121.236443 
	C567.842773,119.232933 561.296143,115.755318 557.193481,107.539368 
M595.006653,89.772179 
	C593.542908,80.603615 578.993896,78.031227 573.161011,85.105415 
	C568.005432,91.358139 568.158630,97.954674 571.846863,103.147507 
	C576.575623,109.805466 582.421265,110.665604 589.750366,107.023338 
	C595.083801,104.372841 597.285522,97.323814 595.006653,89.772179 
z"/>
<path fill="#FFFFFF" opacity="1.000000" stroke="none" 
	d="
M192.010895,68.000000 
	C196.839767,68.000015 201.174927,68.103188 205.502670,67.968391 
	C209.167465,67.854248 211.077042,69.192680 211.040939,73.103661 
	C211.007324,76.745766 209.255310,78.057549 205.796707,78.027206 
	C196.633682,77.946823 187.363678,78.841179 178.342606,77.706696 
	C172.243164,76.939621 166.068253,74.108711 160.686188,70.919769 
	C152.417068,66.020218 144.364639,62.582005 134.284592,62.794983 
	C106.306015,63.386127 78.306656,63.036533 50.316017,62.928337 
	C48.154076,62.919983 45.617634,62.403538 43.960762,61.173176 
	C42.724297,60.255001 41.911671,57.660572 42.228146,56.075787 
	C42.528656,54.570961 44.360294,53.107204 45.865330,52.201424 
	C46.855118,51.605740 48.459694,52.004288 49.788967,52.004025 
	C76.780350,51.998650 103.775780,52.275562 130.761353,51.879436 
	C143.542236,51.691826 155.141068,54.019966 165.559265,61.808167 
	C173.202942,67.522255 182.192154,68.734482 192.010895,68.000000 
z"/>
<path fill="#FFFFFF" opacity="1.000000" stroke="none" 
	d="
M352.191406,107.496651 
	C351.681458,100.390579 351.227234,93.675285 351.034454,86.952484 
	C350.868317,81.158348 351.000000,75.355667 351.000000,69.279327 
	C355.959442,69.279327 360.693237,69.279327 366.000000,69.279327 
	C366.000000,78.461548 365.997772,87.711632 366.000732,96.961716 
	C366.002960,103.986313 369.488617,108.549629 375.186981,108.999252 
	C381.049286,109.461815 386.341553,105.186943 386.913757,98.627197 
	C387.756256,88.969131 387.992004,79.258141 388.501068,69.278503 
	C392.626892,69.278503 397.028442,69.278503 401.717499,69.278503 
	C401.717499,86.271133 401.717499,103.322556 401.717499,120.687637 
	C397.771179,120.687637 393.699768,120.687637 389.273315,120.687637 
	C389.115448,119.657860 388.927551,118.432159 388.702271,116.962601 
	C373.995819,124.151222 360.648590,125.867851 352.191406,107.496651 
z"/>
<path fill="#FFFFFF" opacity="1.000000" stroke="none" 
	d="
M672.985596,103.699791 
	C670.418640,116.926270 660.465149,120.076447 649.690979,120.828125 
	C638.642273,121.598953 627.497864,120.999016 616.200012,120.999016 
	C616.200012,96.564789 616.200012,72.522560 616.200012,47.765106 
	C630.179565,49.332256 644.294922,45.361782 657.925415,50.042664 
	C671.229919,54.611561 673.202087,68.860985 666.539856,78.736137 
	C665.205505,80.713982 662.420837,81.713387 659.820312,83.496155 
	C669.548340,86.797409 672.521423,94.247543 672.985596,103.699791 
M664.687866,95.155121 
	C661.591187,92.769279 658.695557,88.705475 655.360840,88.305801 
	C644.466248,87.000053 633.411621,87.029716 622.367188,86.543518 
	C622.367188,96.584862 622.367188,105.766296 622.367188,115.462357 
	C632.815308,114.962120 642.938477,115.029678 652.913574,113.848030 
	C663.358765,112.610687 668.421753,105.689919 664.687866,95.155121 
M628.576782,80.000000 
	C635.740723,80.000000 642.924011,80.307846 650.059937,79.860542 
	C653.272095,79.659180 656.695190,78.462936 659.477783,76.804153 
	C663.507080,74.402184 664.697632,70.131050 663.811523,65.656082 
	C662.597717,59.526157 658.454346,55.176182 652.574036,54.418816 
	C642.531494,53.125378 632.328186,53.080788 622.321106,52.518875 
	C622.321106,62.380524 622.321106,71.118935 622.321106,80.000000 
	C624.294250,80.000000 625.947021,80.000000 628.576782,80.000000 
z"/>
<path fill="#FFFFFF" opacity="1.000000" stroke="none" 
	d="
M481.955078,56.002716 
	C486.437469,55.550755 490.457520,55.101318 494.926727,54.601662 
	C494.926727,59.705948 494.926727,64.124115 494.926727,68.918274 
	C499.373047,68.918274 503.455322,68.918274 507.760803,68.918274 
	C507.760803,73.039841 507.760803,76.776146 507.760803,80.907776 
	C503.639893,80.907776 499.556976,80.907776 495.002655,80.907776 
	C495.002655,88.889801 494.880188,96.492577 495.060699,104.088158 
	C495.136932,107.295609 499.011475,109.750107 502.226135,108.915619 
	C503.710449,108.530296 505.112915,107.829712 506.780334,107.183792 
	C507.684113,109.472939 508.621582,111.665909 509.420959,113.908119 
	C511.368591,119.371147 510.983795,120.306442 505.365387,120.910461 
	C501.275604,121.350151 497.091217,121.213997 492.968781,120.982826 
	C484.472809,120.506393 480.127045,112.384918 480.020752,104.905746 
	C479.911957,97.251472 479.970947,89.594818 479.945190,81.939247 
	C479.944733,81.800644 479.803497,81.662506 479.517456,81.138771 
	C477.002289,81.138771 474.262634,81.138771 471.263184,81.138771 
	C471.263184,77.023529 471.263184,73.282654 471.263184,69.151962 
	C473.971039,69.151962 476.722778,69.151962 480.000122,69.151962 
	C480.000122,65.520546 479.884583,62.240574 480.068695,58.977505 
	C480.125916,57.963200 480.995178,56.994709 481.955078,56.002716 
z"/>
<path fill="#FFFFFF" opacity="1.000000" stroke="none" 
	d="
M515.000000,87.000931 
	C515.000000,80.857330 515.000000,75.213425 515.000000,69.285622 
	C519.292358,69.285622 523.375549,69.285622 527.774353,69.285622 
	C527.923279,70.398216 528.087219,71.622902 528.344055,73.542122 
	C529.758240,72.779427 530.959961,72.365967 531.868774,71.603424 
	C538.239685,66.258018 547.712891,67.055435 554.583008,71.358719 
	C555.349121,71.838570 555.555420,73.855957 555.362000,75.053818 
	C555.141663,76.418190 554.304688,77.743759 553.518738,78.944122 
	C551.515991,82.002930 550.658142,84.720123 544.960022,82.498230 
	C537.025085,79.404106 530.011414,84.738647 530.001953,93.981606 
	C529.992920,102.793526 530.000000,111.605461 530.000000,120.708107 
	C525.058899,120.708107 520.319702,120.708107 515.000000,120.708107 
	C515.000000,109.696411 515.000000,98.598518 515.000000,87.000931 
z"/>
<path fill="#FFFFFF" opacity="1.000000" stroke="none" 
	d="
M768.332886,104.806877 
	C766.169861,99.730240 761.825439,98.878716 757.507751,98.003616 
	C752.145813,96.916862 746.643127,96.289833 741.448914,94.669922 
	C735.082031,92.684280 731.689453,87.603516 732.001160,82.084824 
	C732.321533,76.412125 735.966736,72.008476 742.198669,69.960876 
	C751.522583,66.897377 760.418091,67.149147 769.148560,72.437088 
	C773.308167,74.956497 772.396851,76.581879 768.985474,79.288048 
	C763.702698,74.626945 757.148010,73.052338 750.192017,74.119942 
	C746.993347,74.610870 743.507385,75.768600 741.007629,77.720245 
	C736.458374,81.271942 736.957581,85.774597 742.347107,87.872215 
	C748.409302,90.231613 754.957214,91.341606 761.291931,93.002602 
	C766.502625,94.368881 771.718994,95.844925 773.974182,101.500259 
	C777.153198,109.472290 773.290833,118.176224 762.199341,120.793076 
	C752.653198,123.045303 743.314453,122.001221 734.948608,116.029190 
	C729.936340,112.451118 729.774048,111.688332 734.368774,107.184883 
	C742.945129,115.286346 752.247498,118.936577 763.878418,113.599457 
	C767.459961,111.955986 768.955566,108.988304 768.332886,104.806877 
z"/>
<path fill="#FFFFFF" opacity="1.000000" stroke="none" 
	d="
M714.290283,110.210571 
	C718.486267,104.722992 719.217651,98.744987 719.048401,92.420273 
	C718.844116,84.787407 719.000000,77.144897 719.000000,69.255180 
	C721.008240,69.255180 722.742493,69.255180 724.746094,69.255180 
	C724.746094,86.305466 724.746094,103.389503 724.746094,120.737152 
	C723.017822,120.737152 721.278015,120.737152 719.135376,120.737152 
	C719.046143,118.927238 718.953979,117.057861 718.892822,115.817818 
	C713.908447,117.700310 709.203918,120.411972 704.199707,121.186279 
	C690.869324,123.248894 679.191101,116.348579 678.169189,102.717323 
	C677.339966,91.655693 678.000793,80.482368 678.000793,69.185715 
	C680.134705,69.185715 681.872070,69.185715 684.000000,69.185715 
	C684.000000,79.158005 684.064087,88.950424 683.976929,98.741486 
	C683.920593,105.070480 685.813904,110.207222 691.765320,113.298653 
	C698.263000,116.673836 704.617188,117.171684 710.838257,112.676758 
	C711.882385,111.922333 712.955139,111.207481 714.290283,110.210571 
z"/>
<path fill="#FFFFFF" opacity="1.000000" stroke="none" 
	d="
M343.055603,15.811110 
	C344.917053,15.228108 346.700348,15.064442 348.485016,14.900649 
	C349.776855,19.078720 350.978058,22.963749 352.638153,28.332903 
	C354.587402,23.140358 356.028625,19.301193 357.574463,15.183290 
	C359.344208,15.183290 361.462067,15.183290 364.400879,15.183290 
	C361.701385,22.928505 359.112091,30.357557 356.486725,37.890099 
	C354.182831,37.890099 351.877350,37.890099 349.433044,37.890099 
	C348.448486,34.901962 347.471680,31.937466 346.012482,27.508841 
	C344.908386,30.438681 344.092987,32.067455 343.689697,33.792568 
	C343.012787,36.687832 341.837830,38.077061 338.403107,38.173843 
	C334.678131,38.278805 334.045135,36.164520 333.231903,33.615650 
	C331.279022,27.495283 329.307648,21.380827 327.346313,15.272075 
	C335.701141,14.838255 333.281860,13.406055 336.968994,23.183805 
	C337.358551,24.216814 337.513000,25.341497 337.936493,26.356937 
	C338.076508,26.692678 338.719940,26.818481 339.336090,27.149149 
	C340.583923,23.407436 341.780670,19.818941 343.055603,15.811110 
z"/>
<path fill="#FFFFFF" opacity="1.000000" stroke="none" 
	d="
M273.000000,23.994473 
	C273.000000,17.863787 273.000000,12.231171 273.000000,5.359037 
	C280.174744,6.074888 287.172699,6.276672 293.946075,7.615050 
	C298.854248,8.584877 299.683044,13.623031 299.585480,17.648890 
	C299.447174,23.355322 295.953796,27.033913 291.064606,27.965263 
	C287.583618,28.628363 284.040985,28.967768 280.115936,29.508060 
	C280.115936,31.999565 280.115936,34.743244 280.115936,37.741234 
	C277.671448,37.741234 275.601471,37.741234 273.000000,37.741234 
	C273.000000,33.361855 273.000000,28.927198 273.000000,23.994473 
M288.396606,12.891572 
	C285.757233,12.490133 283.117859,12.088695 280.321045,11.663309 
	C280.321045,15.537406 280.321045,18.717779 280.321045,21.999626 
	C282.946289,21.999626 285.431580,22.539057 287.505676,21.846716 
	C289.547180,21.165262 291.171722,19.234785 292.979187,17.852343 
	C291.729767,16.232565 290.480347,14.612787 288.396606,12.891572 
z"/>
<path fill="#FFFFFF" opacity="1.000000" stroke="none" 
	d="
M504.366272,33.173256 
	C501.603790,34.972061 499.278198,37.395454 496.643158,37.799198 
	C491.980652,38.513569 487.129913,37.999432 482.190704,37.999432 
	C482.190704,27.232096 482.190704,16.806046 482.190704,6.190285 
	C484.120178,6.190285 485.859406,6.190285 487.933289,6.190285 
	C487.933289,9.461782 487.933289,12.574407 487.933289,16.016405 
	C494.159515,14.148335 500.217499,13.282180 504.268646,18.979568 
	C507.254120,23.178209 506.900757,28.177984 504.366272,33.173256 
M489.000122,25.610191 
	C488.816803,29.390743 490.303528,32.336750 494.328064,31.787436 
	C496.371338,31.508549 499.218475,29.288336 499.667969,27.448725 
	C500.086121,25.737455 498.295288,22.304502 496.602142,21.521677 
	C493.675476,20.168528 489.998352,20.117292 489.000122,25.610191 
z"/>
<path fill="#FFFFFF" opacity="1.000000" stroke="none" 
	d="
M461.953247,6.002627 
	C462.941254,6.472844 463.910919,6.936945 463.914978,7.409380 
	C464.002197,17.515560 463.981171,27.622663 463.981171,38.222454 
	C457.585022,37.754356 451.424347,38.058575 445.681427,36.654255 
	C440.713623,35.439472 438.382782,27.529648 440.122620,21.600885 
	C441.409424,17.215731 447.174103,13.986024 452.395844,14.782588 
	C454.127594,15.046767 455.835754,15.465803 458.000214,15.904301 
	C458.000214,13.545219 458.232880,11.240033 457.943970,9.002190 
	C457.542877,5.895882 459.308685,5.817508 461.953247,6.002627 
M454.034576,21.019686 
	C453.211517,21.013176 452.197205,20.693445 451.600525,21.057718 
	C449.658813,22.243082 446.727020,23.410507 446.332947,25.090675 
	C445.911163,26.888933 447.418121,29.980965 449.054504,31.157495 
	C450.392120,32.119240 453.432831,31.674791 455.231171,30.823891 
	C458.520050,29.267744 458.178619,25.173214 454.034576,21.019686 
z"/>
<path fill="#FFFFFF" opacity="1.000000" stroke="none" 
	d="
M423.443054,31.990622 
	C426.350769,31.653582 428.844635,31.308430 432.469299,30.806772 
	C432.828278,31.160446 434.079437,32.393185 435.295593,33.591400 
	C431.551666,38.097454 422.986786,39.485882 418.193970,36.716793 
	C413.665253,34.100281 411.818573,26.036417 414.385071,20.084539 
	C416.219849,15.829521 422.743683,12.917858 427.547089,14.210158 
	C434.724792,16.141235 437.453735,20.495886 436.595825,28.877220 
	C431.335724,28.877220 426.049774,28.877220 419.432129,28.877220 
	C421.168213,30.375965 422.098694,31.179239 423.443054,31.990622 
z"/>
<path fill="#FFFFFF" opacity="1.000000" stroke="none" 
	d="
M383.474731,15.171289 
	C388.791138,17.235184 389.103760,21.885021 389.810699,26.067245 
	C389.940338,26.834398 387.706177,28.760199 386.456665,28.863522 
	C382.171997,29.217821 377.839966,28.999504 373.458832,28.999504 
	C375.996429,32.817112 378.586792,33.113327 384.767487,30.030571 
	C385.778839,31.181246 386.927795,32.488529 388.064880,33.782288 
	C384.503601,38.296501 375.601166,39.710720 370.947937,36.361217 
	C366.681976,33.290478 363.966248,27.931854 367.627747,19.861864 
	C369.796906,15.081004 375.844666,12.976848 381.611237,14.924793 
	C382.065491,15.078248 382.599762,14.994753 383.474731,15.171289 
z"/>
<path fill="#FFFFFF" opacity="1.000000" stroke="none" 
	d="
M524.742065,17.645786 
	C527.369080,16.238523 529.767456,15.174561 532.165833,14.110598 
	C532.459106,14.546942 532.752380,14.983286 533.045654,15.419630 
	C530.736023,20.767597 528.427368,26.115984 526.116455,31.463379 
	C524.399841,35.435612 522.247009,39.283051 521.070618,43.409065 
	C519.570068,48.672119 516.217651,48.522144 511.312408,47.491421 
	C518.897034,39.088135 514.760071,31.200121 511.041046,23.261303 
	C509.894226,20.813278 508.949219,18.270702 507.897705,15.737450 
	C514.716858,14.169346 514.716858,14.169346 520.264587,28.199560 
	C521.922546,24.215288 523.217957,21.102186 524.742065,17.645786 
z"/>
<path fill="#FFFFFF" opacity="1.000000" stroke="none" 
	d="
M313.936096,15.000000 
	C321.720520,15.088985 325.047607,18.823259 325.000000,26.922184 
	C324.960449,33.648907 320.474243,37.993626 313.561401,38.000000 
	C306.597534,38.006420 302.055115,33.702244 302.000031,27.045002 
	C301.929474,18.524117 305.283112,15.009842 313.936096,15.000000 
M308.346893,24.122971 
	C307.438568,27.850616 308.821777,30.711639 312.306732,31.883173 
	C315.187317,32.851543 316.971069,31.035868 318.359406,28.321728 
	C319.901489,25.307034 318.515076,23.632944 316.477295,22.046772 
	C313.438995,19.681892 311.031128,21.018639 308.346893,24.122971 
z"/>
<path fill="#FFFFFF" opacity="1.000000" stroke="none" 
	d="
M409.587036,21.743378 
	C402.767639,19.620184 400.034668,21.465252 400.002533,28.216030 
	C399.987671,31.336857 400.000000,34.457813 400.000000,37.786484 
	C397.923889,37.786484 396.189789,37.786484 394.226685,37.786484 
	C394.226685,30.315672 394.226685,22.920609 394.226685,15.451325 
	C400.189728,15.451325 406.070557,15.451325 412.555511,15.451325 
	C411.321930,18.302893 410.624725,19.914642 409.587036,21.743378 
z"/>
<path fill="#000000" opacity="1.000000" stroke="none" 
	d="
M63.656876,107.836021 
	C70.996193,100.464142 78.245186,101.758133 82.222206,110.663200 
	C84.324898,115.371384 82.212646,118.969337 79.309128,122.030792 
	C75.908928,125.615952 70.651276,125.890312 66.909531,123.388718 
	C61.078373,119.490211 59.856510,114.216156 63.656876,107.836021 
z"/>
<path fill="#000000" opacity="1.000000" stroke="none" 
	d="
M192.989578,110.268555 
	C195.089249,116.310219 192.324997,121.839745 186.160675,124.352676 
	C181.212936,126.369659 175.036377,123.495438 173.074661,118.263184 
	C170.961823,112.627754 173.652481,106.213623 179.047668,104.016350 
	C183.988129,102.004257 188.820892,103.457932 192.989578,110.268555 
z"/>
<path fill="#000000" opacity="1.000000" stroke="none" 
	d="
M329.000000,84.000885 
	C329.157928,95.098373 324.856018,103.135925 314.710632,106.989136 
	C301.568573,111.980469 287.232574,105.570633 283.933807,90.098663 
	C281.675201,79.505394 284.355103,70.510811 292.829865,64.203583 
	C300.116882,58.780315 308.648285,58.128014 317.047607,62.535469 
	C325.501038,66.971313 329.197296,74.155441 329.000000,84.000885 
z"/>
<path fill="#000000" opacity="1.000000" stroke="none" 
	d="
M443.120422,107.394966 
	C435.806152,111.326233 427.693878,107.493446 424.948395,101.106712 
	C421.971985,94.182861 424.679626,85.595673 431.292572,82.261627 
	C437.609161,79.076981 444.622223,81.180260 448.057831,87.289696 
	C452.256836,94.756538 450.332733,102.931129 443.120422,107.394966 
z"/>
<path fill="#000000" opacity="1.000000" stroke="none" 
	d="
M595.057007,90.187683 
	C597.285522,97.323814 595.083801,104.372841 589.750366,107.023338 
	C582.421265,110.665604 576.575623,109.805466 571.846863,103.147507 
	C568.158630,97.954674 568.005432,91.358139 573.161011,85.105415 
	C578.993896,78.031227 593.542908,80.603615 595.057007,90.187683 
z"/>
<path fill="#000000" opacity="1.000000" stroke="none" 
	d="
M664.840698,95.531494 
	C668.421753,105.689919 663.358765,112.610687 652.913574,113.848030 
	C642.938477,115.029678 632.815308,114.962120 622.367188,115.462357 
	C622.367188,105.766296 622.367188,96.584862 622.367188,86.543518 
	C633.411621,87.029716 644.466248,87.000053 655.360840,88.305801 
	C658.695557,88.705475 661.591187,92.769279 664.840698,95.531494 
z"/>
<path fill="#000000" opacity="1.000000" stroke="none" 
	d="
M628.088257,80.000000 
	C625.947021,80.000000 624.294250,80.000000 622.321106,80.000000 
	C622.321106,71.118935 622.321106,62.380524 622.321106,52.518875 
	C632.328186,53.080788 642.531494,53.125378 652.574036,54.418816 
	C658.454346,55.176182 662.597717,59.526157 663.811523,65.656082 
	C664.697632,70.131050 663.507080,74.402184 659.477783,76.804153 
	C656.695190,78.462936 653.272095,79.659180 650.059937,79.860542 
	C642.924011,80.307846 635.740723,80.000000 628.088257,80.000000 
z"/>
<path fill="#000000" opacity="1.000000" stroke="none" 
	d="
M288.813782,12.942291 
	C290.480347,14.612787 291.729767,16.232565 292.979187,17.852352 
	C291.171722,19.234785 289.547180,21.165262 287.505676,21.846716 
	C285.431580,22.539057 282.946289,21.999626 280.321045,21.999626 
	C280.321045,18.717779 280.321045,15.537406 280.321045,11.663309 
	C283.117859,12.088695 285.757233,12.490133 288.813782,12.942291 
z"/>
<path fill="#000000" opacity="1.000000" stroke="none" 
	d="
M489.000977,25.187029 
	C489.998352,20.117292 493.675476,20.168528 496.602142,21.521677 
	C498.295288,22.304502 500.086121,25.737455 499.667969,27.448725 
	C499.218475,29.288336 496.371338,31.508549 494.328064,31.787436 
	C490.303528,32.336750 488.816803,29.390743 489.000977,25.187029 
z"/>
<path fill="#000000" opacity="1.000000" stroke="none" 
	d="
M454.417664,21.144432 
	C458.178619,25.173214 458.520050,29.267744 455.231171,30.823891 
	C453.432831,31.674791 450.392120,32.119240 449.054504,31.157495 
	C447.418121,29.980965 445.911163,26.888933 446.332947,25.090675 
	C446.727020,23.410507 449.658813,22.243082 451.600525,21.057718 
	C452.197205,20.693445 453.211517,21.013176 454.417664,21.144432 
z"/>
<path fill="#000000" opacity="1.000000" stroke="none" 
	d="
M308.643494,23.859318 
	C311.031128,21.018639 313.438995,19.681892 316.477295,22.046772 
	C318.515076,23.632944 319.901489,25.307034 318.359406,28.321728 
	C316.971069,31.035868 315.187317,32.851543 312.306732,31.883173 
	C308.821777,30.711639 307.438568,27.850616 308.643494,23.859318 
z"/>
</svg>