<?xml version="1.0" encoding="utf-8"?>
<!-- Generator: Adobe Illustrator 23.0.6, SVG Export Plug-In . SVG Version: 6.00 Build 0)  -->
<svg version="1.1" id="Capa_1" xmlns="http://www.w3.org/2000/svg" xmlns:xlink="http://www.w3.org/1999/xlink" x="0px" y="0px"
	 viewBox="0 0 109 15" style="enable-background:new 0 0 109 15;" xml:space="preserve">
<style type="text/css">
	.st0{fill:#E09B1B;}
</style>
<g>
	<g>
		<path class="st0" d="M9.3,1l1.8,3.6l4.1,0.6c0.7,0.1,1,1,0.5,1.5l-3,2.8l0.7,4c0.1,0.7-0.7,1.3-1.3,0.9l-3.7-1.9l-3.7,1.9
			c-0.7,0.3-1.4-0.2-1.3-0.9l0.7-4l-3-2.8C0.7,6.2,1,5.3,1.8,5.2l4.1-0.6L7.7,1C8,0.3,9,0.3,9.3,1z"/>
	</g>
	<g>
		<path class="st0" d="M32.3,1l1.8,3.6l4.1,0.6c0.7,0.1,1,1,0.5,1.5l-3,2.8l0.7,4c0.1,0.7-0.7,1.3-1.3,0.9l-3.7-1.9l-3.7,1.9
			c-0.7,0.3-1.4-0.2-1.3-0.9l0.7-4l-3-2.8c-0.5-0.5-0.2-1.4,0.5-1.5l4.1-0.6l2-3.6C31,0.3,32,0.3,32.3,1z"/>
	</g>
	<g>
		<path class="st0" d="M55.3,1l1.8,3.6l4.1,0.6c0.7,0.1,1,1,0.5,1.5l-3,2.8l0.7,4c0.1,0.7-0.7,1.3-1.3,0.9l-3.7-1.9l-3.7,1.9
			c-0.7,0.3-1.4-0.2-1.3-0.9l0.7-4l-3-2.8c-0.5-0.5-0.2-1.4,0.5-1.5l4.1-0.6l2-3.6C54,0.3,55,0.3,55.3,1z"/>
	</g>
	<g>
		<path class="st0" d="M78.3,1l1.8,3.6l4.1,0.6c0.7,0.1,1,1,0.5,1.5l-3,2.8l0.7,4c0.1,0.7-0.7,1.3-1.3,0.9l-3.7-1.9l-3.7,1.9
			c-0.7,0.3-1.4-0.2-1.3-0.9l0.7-4l-3-2.8c-0.5-0.5-0.2-1.4,0.5-1.5l4.1-0.6l2-3.6C77,0.3,78,0.3,78.3,1z"/>
	</g>
	<g>
		<path class="st0" d="M101.3,1l1.8,3.6l4.1,0.6c0.7,0.1,1,1,0.5,1.5l-3,2.8l0.7,4c0.1,0.7-0.7,1.3-1.3,0.9l-3.7-1.9l-3.7,1.9
			c-0.7,0.3-1.4-0.2-1.3-0.9l0.7-4l-3-2.8c-0.5-0.5-0.2-1.4,0.5-1.5l4.1-0.6l2-3.6C100,0.3,101,0.3,101.3,1z"/>
	</g>
</g>
</svg>
